# xmcd
#
# Track frame offsets: 
#        187
#        28237
#        50057
#        70082
#        106722
#        134797
#        163120
#        193200
#        207190
#
# Disc length: 3130 seconds
#
# Revision: 3
# Processed by: cddbd v1.5.2PL0 Copyright (c) Steve Scherf et al.
# Submitted via: ExactAudioCopy v1.0b2
#
DISCID=890c3809
DTITLE=Wilhelm Backhaus - Backhaus Carnegie Hall Recital_CD1 (March 30
DTITLE=1954)
DYEAR=1954
DGENRE=Classical
TTITLE0=Beethoven Sonata No.8 in C Minor, OP.13 "Pathetique" - Grave A
TTITLE0=llegro do molto e con brio
TTITLE1=Adagio cantabile
TTITLE2=Rondo
TTITLE3=Beethoven Sonata No.17 in D Minor, OP31-2 "Tempest" - Largo Al
TTITLE3=legro
TTITLE4=Adagio
TTITLE5=Allegretto
TTITLE6=Beethoven Sonata No.26 in E flat major Op.81a "Les Adieux" - D
TTITLE6=as Lebewohl
TTITLE7=Die Abwesenheit
TTITLE8=Das Wiedersehen
EXTD=YEAR: 1954
EXTT0=
EXTT1=
EXTT2=
EXTT3=
EXTT4=
EXTT5=
EXTT6=
EXTT7=
EXTT8=
PLAYORDER=
